<?xml version="1.0" encoding="utf-8"?>
<!-- Generator: Adobe Illustrator 28.0.0, SVG Export Plug-In . SVG Version: 6.00 Build 0)  -->
<svg version="1.1" id="Layer_1" xmlns="http://www.w3.org/2000/svg" xmlns:xlink="http://www.w3.org/1999/xlink" x="0px" y="0px"
	 viewBox="0 0 90 98.1" style="enable-background:new 0 0 90 98.1;" xml:space="preserve">
<g>
	<g>
		<path d="M13.3,49.9l8.6-10.4l6.2,4.4c0,0,0.7,0.4,1.1-0.2c0.6-1,5.9-6.7,4.1-24.3C31.9,5.6,26.6,5.7,25.6,5.5
			c-2-0.3-5.5,1.8-4.8,4.3c0.5,2.1,2.1,3.5,3,4.1c3.4,2.4,6.7,5.4,7.5,10c0.7,4.5-0.9,8.5-5.8,9.9c-6,1.7-9.2-4-9.2-4
			s-0.8-1.4-0.8-2.5c0-1,1-0.8,1.3-0.8c0.3,0,1.3,1.7,1.3,1.7s1.2,2.7,4.3,2.7c1.7,0,3.7-1.2,2.1-4.5c-1.3-2.6-5.1-4.6-6.4-7
			c-1.9-3.6-2.9-9.5,1.2-14.1C23.2,1.1,29.7,1.7,30.9,2c1.3,0.3,5.3,1.7,7,3.9c0,0,2.1-3.6,5.1-4.9c2.4-1.1,7.6-2.2,12.3,5.1
			c0,0,4.3-6.5,11.1-3c5.2,2.6,5.5,9,5.6,9.2c0.1,0.2,0.6,3.6,1.4,3.7c0.8,0.1,1.3,0.1,1.7,0.5c0.5,0.4,0.8,1.7,0.1,1.9
			c-0.8,0.2-8.1-0.7-9,9.1c-0.9,9.9,1.1,11.3,4.5,16.7l3.9-3c0,0,0.7-0.4,0.8-0.1c0.1,0.3,0.7,1.1,0.7,1.1s0.3,0.6-0.1,1
			c-0.4,0.3-11.4,9.7-11.4,9.7s-7.1-8-6.7-16.6c0.5-9.6,6.3-15.2,9.2-17.1c0.5-0.3-2.8-1.2-3.5-4.9c-0.4-2.5-1.4-7.9-3.4-8.2
			c-2-0.2-3,1.8-3.8,2.9c0,0,2,5.1,1,14.1c-1.1,9.7-2.6,14.2-10.1,24.1l-5.3,6.1c0,0,0.4,0.2,0,0s-6-4.2-6-4.2s-0.2-0.4-0.4-0.1
			c-0.2,0.3-2.8,3.2-2.8,3.2s-0.4,0.5-0.6,0.2c-0.2-0.2-1-1-1-1s-0.8-0.4-0.2-0.8c0.5-0.4,8.8-10.5,8.8-10.5l6.1,4.1
			c0,0,0.7-0.2,1.1-1.6c0.5-1.4,3.1-9.5,1.7-22.2c-1.4-12.6-1.4-14-2.9-15.3c-1.4-1.3-3.3-1.7-4.8,0.8c-1.5,2.5-1.2,2.7-1.2,2.7
			s3.5,5.3,2.8,13.1c-0.7,7.8-1.7,12.7-9.2,21.3c-7.5,8.6-8.2,9.9-8.2,9.9s0.3,0.2,0,0c-0.3-0.2-6.4-4.9-6.4-4.9s-0.2-0.2-0.4,0
			c-0.2,0.2-3.4,3.6-3.4,3.6s-0.3,0.6-0.8,0.1c-0.7-0.8-1-1.1-1-1.1S12.9,50.4,13.3,49.9"/>
	</g>
	<g>
		<path d="M3.1,60.3l0.6,1.3c1.2,2.5,2.5,5,4,7.5l1.1,2l0.8-1.4c1.6-2.8,3.3-6,5-9.5c0.2,0,0.3,0.1,0.5,0.1s0.3,0,0.4-0.1l0.2,1.7
			c0.2,2.4,0.5,4.9,0.8,7.3c0.3,2.6,0.6,4.4,0.8,5.4c-0.7-0.1-1.2-0.1-1.5-0.1c-0.3,0-0.8,0-1.4,0.1l-0.1-0.8
			c-0.1-0.8-0.1-1.6-0.2-2.7l-0.7-6.1c-2.2,3.7-3.9,6.9-5,9.5H8.1H7.7c-0.4-0.8-1.4-2.7-2.9-5.5c-0.6-1.1-1.3-2.4-2.1-3.8
			C2.3,69,2,72.1,1.8,74.7c-0.4-0.1-0.7-0.1-1-0.1c-0.2,0-0.5,0-0.9,0.1L0.1,74c0.2-1.3,0.6-3.6,1.1-7c0.5-3.3,0.8-5.5,0.9-6.8
			c0.2,0,0.3,0.1,0.5,0.1C2.6,60.3,2.8,60.3,3.1,60.3"/>
		<path d="M28.8,74.7l-0.9-2.3L27,70.1c-1.2-0.1-2.1-0.1-2.7-0.1c-0.6,0-1.4,0-2.5,0.1c-0.8,2-1.4,3.5-1.7,4.6
			c-0.5-0.1-0.9-0.1-1-0.1c0,0-0.4,0-0.9,0.1l2.4-5.4c2.2-4.9,3.5-7.9,3.8-9.2c0.3,0.1,0.5,0.1,0.7,0.1c0.2,0,0.4,0,0.7-0.1
			c0.7,2.1,1.7,4.6,3,7.6c1.2,2.9,2.3,5.2,3.1,7c-1.3-0.1-1.8-0.1-1.6-0.1c-0.2,0-0.5,0-0.9,0.1C29.1,74.7,28.8,74.7,28.8,74.7
			 M26.4,68.8l-2-5.2l-2.1,5.2c0.2,0,0.5,0,1.1,0c0.4,0,0.8,0,1.1,0C24.9,68.9,25.5,68.9,26.4,68.8 M27.2,57.5
			c0,0.6-0.2,1.1-0.7,1.5c-0.4,0.4-0.9,0.6-1.5,0.6c-0.6,0-1.1-0.2-1.5-0.6s-0.6-0.9-0.6-1.5c0-0.6,0.2-1.1,0.6-1.5
			c0.4-0.4,0.9-0.7,1.5-0.7c0.6,0,1.1,0.2,1.5,0.7C27,56.5,27.2,57,27.2,57.5 M26.4,57.5c0-0.3-0.1-0.6-0.4-0.9s-0.6-0.4-0.9-0.4
			c-0.4,0-0.7,0.1-0.9,0.4c-0.3,0.3-0.4,0.6-0.4,0.9c0,0.4,0.1,0.7,0.4,0.9c0.3,0.3,0.6,0.4,0.9,0.4s0.6-0.1,0.9-0.4
			S26.4,57.9,26.4,57.5"/>
		<path d="M33.8,68.9V66c0-0.8,0-1.8,0-3c0-0.8,0-1.7-0.1-2.7c0.4,0.1,0.9,0.1,1.4,0.1c0.5,0,1,0,1.5-0.1c-0.1,3-0.2,6-0.2,9
			c0,0.3,0,1.7,0.1,4h0.4c2.4,0,4-0.1,4.9-0.2c-0.1,0.3-0.1,0.5-0.1,0.8c0,0.3,0,0.5,0.1,0.7c-2.1-0.1-3.5-0.1-4-0.1
			c-1.1,0-2.5,0-4,0.1c0-0.1,0-1,0.1-2.8C33.8,70.1,33.8,69.1,33.8,68.9"/>
		<path d="M46.9,61.6v4.9c2.2,0,3.7,0,4.5-0.1c-0.1,0.3-0.1,0.5-0.1,0.8c0,0.3,0,0.5,0.1,0.7c-1.3-0.1-2.8-0.1-4.5-0.1v5.7
			c1.3,0,2.9,0,5-0.1c-0.1,0.2-0.1,0.4-0.1,0.7c0,0.3,0,0.6,0.1,0.8c-1.3-0.1-2.5-0.1-3.9-0.1c-1.3,0-2.6,0-3.9,0.1
			c0-1,0.1-1.9,0.1-2.6c0.1-1.9,0.1-3.4,0.1-4.7c0-2.9-0.1-5.2-0.2-7c1.4,0.1,2.6,0.1,3.8,0.1c0.4,0,0.9,0,1.7,0
			c1.1,0,1.8-0.1,2.1-0.1c-0.1,0.3-0.1,0.5-0.1,0.7c0,0.3,0,0.6,0.1,0.8l-2-0.1C49.3,61.6,48.3,61.6,46.9,61.6"/>
		<path d="M60.9,67.5l0.6,0.8c0.3,0.4,0.6,0.9,1.1,1.6c1.2,1.7,2.4,3.3,3.5,4.7c-0.8-0.1-1.4-0.1-1.9-0.1c-0.5,0-1.1,0-1.7,0.1
			c-0.3-0.4-0.6-1-1.1-1.7c-0.8-1.2-2-3-3.5-5.1h-0.5v3c0,0.2,0,0.9,0,2c0,1.1,0,1.7,0,1.9c-0.8-0.1-1.3-0.1-1.4-0.1
			c-0.4,0-0.8,0-1.4,0.1c0.1-3.1,0.2-6,0.2-8.7c0-2-0.1-3.9-0.2-5.8c0.8,0.1,1.5,0.1,2.1,0.1c0.2,0,0.8,0,1.8-0.1
			c1,0,1.6-0.1,1.7-0.1c1.5,0,2.6,0.3,3.3,1c0.6,0.6,1,1.4,1,2.4c0,1.1-0.4,2-1.1,2.7C62.8,66.9,61.9,67.3,60.9,67.5 M57.4,61.4v5.4
			c0.8,0,1.3,0.1,1.4,0.1c1,0,1.7-0.3,2.2-0.9c0.4-0.5,0.7-1.2,0.7-2c0-1-0.3-1.7-0.9-2.2c-0.5-0.3-1.1-0.5-2-0.5
			C59,61.3,58.5,61.3,57.4,61.4"/>
		<path d="M76.6,74.7l-0.9-2.3l-0.9-2.2c-1.2-0.1-2.1-0.1-2.7-0.1c-0.6,0-1.4,0-2.5,0.1c-0.8,2-1.4,3.5-1.7,4.6
			c-0.5-0.1-0.9-0.1-1-0.1c0,0-0.4,0-0.9,0.1l2.4-5.4c2.2-4.9,3.5-7.9,3.8-9.2c0.3,0.1,0.5,0.1,0.7,0.1c0.2,0,0.4,0,0.7-0.1
			c0.7,2.1,1.7,4.6,3,7.6c1.2,2.9,2.3,5.2,3.1,7c-1.3-0.1-1.8-0.1-1.6-0.1c-0.2,0-0.5,0-0.9,0.1C76.9,74.7,76.7,74.7,76.6,74.7
			 M74.2,68.8l-2-5.2l-2.1,5.2c0.2,0,0.5,0,1.1,0c0.4,0,0.8,0,1.1,0C72.7,68.9,73.3,68.9,74.2,68.8 M75.1,57.5
			c0,0.6-0.2,1.1-0.7,1.5c-0.4,0.4-0.9,0.6-1.5,0.6c-0.6,0-1.1-0.2-1.5-0.6s-0.6-0.9-0.6-1.5c0-0.6,0.2-1.1,0.6-1.5
			c0.4-0.4,0.9-0.7,1.5-0.7c0.6,0,1.1,0.2,1.5,0.7C74.8,56.5,75.1,57,75.1,57.5 M74.2,57.5c0-0.3-0.1-0.6-0.4-0.9
			c-0.3-0.3-0.6-0.4-0.9-0.4c-0.4,0-0.7,0.1-0.9,0.4c-0.3,0.3-0.4,0.6-0.4,0.9c0,0.4,0.1,0.7,0.4,0.9s0.6,0.4,0.9,0.4
			s0.6-0.1,0.9-0.4C74.1,58.2,74.2,57.9,74.2,57.5"/>
		<path d="M81.2,71.5h0.3c0.4,1,1,1.6,1.5,2c0.4,0.3,1,0.4,1.7,0.4c0.8,0,1.5-0.2,2-0.7c0.5-0.5,0.8-1.1,0.8-1.9
			c0-1.1-0.6-1.9-1.7-2.4c-0.5-0.2-1.3-0.5-2.2-0.9c-1-0.4-1.7-0.9-2.1-1.5c-0.4-0.6-0.6-1.3-0.6-2.2c0-1.1,0.3-2.1,1-2.8
			c0.9-0.9,2.1-1.4,3.9-1.4c1,0,2.2,0.3,3.5,0.9c-0.3,0.7-0.5,1.4-0.7,2h-0.3c-0.2-0.6-0.5-1-1-1.4c-0.5-0.3-1.1-0.5-1.8-0.5
			c-0.8,0-1.4,0.2-1.8,0.6c-0.4,0.4-0.6,1-0.6,1.6c0,0.7,0.3,1.2,0.8,1.6c0.3,0.3,1,0.6,2.1,1c0.9,0.4,1.5,0.6,1.8,0.8
			c0.4,0.2,0.8,0.5,1,0.8c0.7,0.7,1,1.7,1,2.8c0,1.2-0.4,2.3-1.2,3.1c-1,1-2.3,1.5-4.1,1.5c-1.2,0-2.5-0.4-3.9-1.1
			C80.9,73.2,81.1,72.4,81.2,71.5"/>
		<path d="M21.1,86.5h0.2c0.3,0.6,0.6,1,0.9,1.2c0.3,0.2,0.6,0.2,1,0.2c0.5,0,0.9-0.1,1.2-0.4c0.3-0.3,0.4-0.7,0.4-1.1
			c0-0.7-0.3-1.1-1-1.4c-0.3-0.1-0.7-0.3-1.3-0.5c-0.6-0.3-1-0.5-1.2-0.9c-0.2-0.3-0.3-0.8-0.3-1.3c0-0.7,0.2-1.2,0.6-1.6
			c0.5-0.5,1.2-0.8,2.3-0.8c0.6,0,1.3,0.2,2,0.5c-0.2,0.4-0.3,0.8-0.4,1.2h-0.2c-0.1-0.3-0.3-0.6-0.6-0.8c-0.3-0.2-0.6-0.3-1-0.3
			c-0.5,0-0.8,0.1-1.1,0.4c-0.2,0.2-0.4,0.6-0.4,0.9c0,0.4,0.2,0.7,0.5,1c0.2,0.1,0.6,0.3,1.2,0.6c0.5,0.2,0.9,0.4,1.1,0.4
			c0.2,0.1,0.4,0.3,0.6,0.5c0.4,0.4,0.6,1,0.6,1.6c0,0.7-0.2,1.3-0.7,1.8c-0.6,0.6-1.4,0.9-2.4,0.9c-0.7,0-1.5-0.2-2.3-0.6
			C20.9,87.5,21,87,21.1,86.5"/>
		<path d="M30.3,85.5l0.2,0.7l0.3-0.8c0.2-0.4,0.4-1.2,0.8-2.3c0.5-1.5,0.8-2.5,1-3.2c0.3,0,0.5,0.1,0.5,0.1c0.1,0,0.3,0,0.5-0.1
			c0.3,0.8,0.6,1.8,1,3.1c0.3,1,0.7,2.1,1.1,3.2c0.3-0.7,0.6-1.7,1-2.8c0.3-0.8,0.6-1.9,1-3.4c0.2,0,0.4,0.1,0.6,0.1
			c0.2,0,0.4,0,0.6-0.1c-0.7,1.7-1.3,3.3-1.8,4.8c-0.5,1.3-0.9,2.5-1.2,3.6c-0.2,0-0.4-0.1-0.5-0.1c0.1,0-0.1,0-0.5,0.1
			c-0.3-1.1-0.6-1.8-0.7-2.2c-0.3-0.8-0.6-1.7-0.9-2.7c-0.1-0.3-0.3-0.8-0.5-1.4l-0.4,1c-0.3,0.8-0.7,1.9-1.2,3.3
			c-0.1,0.2-0.3,0.8-0.6,1.9c-0.2,0-0.4-0.1-0.5-0.1c-0.1,0-0.3,0-0.5,0.1l-0.3-0.9c-0.5-1.6-1-2.9-1.4-4c-0.4-1.1-0.8-2.2-1.3-3.4
			c0.5,0,0.8,0.1,1,0.1c0.3,0,0.6,0,0.9-0.1C28.9,81.1,29.4,82.9,30.3,85.5"/>
		<path d="M41.5,80.7v2.9c1.3,0,2.1,0,2.6-0.1c0,0.1-0.1,0.3-0.1,0.4c0,0.2,0,0.3,0.1,0.4c-0.7-0.1-1.6-0.1-2.6-0.1v3.3
			c0.7,0,1.7,0,2.9-0.1c0,0.1-0.1,0.2-0.1,0.4c0,0.2,0,0.3,0.1,0.4c-0.7,0-1.5-0.1-2.3-0.1c-0.7,0-1.5,0-2.3,0.1
			c0-0.6,0-1.1,0.1-1.5c0-1.1,0-2,0-2.8c0-1.7,0-3-0.1-4.1c0.8,0,1.5,0.1,2.2,0.1c0.2,0,0.5,0,1,0c0.6,0,1,0,1.2,0
			c0,0.2-0.1,0.3-0.1,0.4c0,0.2,0,0.3,0.1,0.5l-1.2-0.1C42.9,80.7,42.4,80.7,41.5,80.7"/>
		<path d="M53.9,83.9c0,1.7-0.6,3-1.8,3.7c-0.7,0.5-1.6,0.7-2.7,0.7c-0.2,0-0.6,0-1.1,0c-0.5,0-0.9,0-1.1,0c-0.1,0-0.5,0-1.2,0.1
			l0.1-2.2c0-0.3,0-1,0-2.3c0-1.3,0-2.6-0.1-3.9c0.6,0,0.9,0.1,1,0.1c0.2,0,0.6,0,1,0c0.5,0,0.8,0,1.1,0c1.5,0,2.6,0.3,3.4,0.8
			C53.5,81.5,53.9,82.6,53.9,83.9 M47.6,82.1v3.8c0,0.2,0,0.8,0.1,1.7c0.9,0,1.5,0.1,1.7,0.1c0.6,0,1.2-0.2,1.8-0.7
			c0.8-0.7,1.1-1.7,1.1-3c0-0.9-0.2-1.7-0.7-2.3C51,81,50.1,80.6,49,80.6c-0.4,0-0.8,0-1.3,0.1C47.7,81.5,47.6,82,47.6,82.1"/>
		<path d="M57.2,80.7v2.9c1.3,0,2.1,0,2.6-0.1c0,0.1-0.1,0.3-0.1,0.4c0,0.2,0,0.3,0.1,0.4c-0.7-0.1-1.6-0.1-2.6-0.1v3.3
			c0.7,0,1.7,0,2.9-0.1c0,0.1-0.1,0.2-0.1,0.4c0,0.2,0,0.3,0.1,0.4c-0.7,0-1.5-0.1-2.3-0.1c-0.7,0-1.5,0-2.3,0.1
			c0-0.6,0-1.1,0.1-1.5c0-1.1,0-2,0-2.8c0-1.7,0-3-0.1-4.1c0.8,0,1.5,0.1,2.2,0.1c0.2,0,0.5,0,1,0c0.6,0,1,0,1.2,0
			c0,0.2-0.1,0.3-0.1,0.4c0,0.2,0,0.3,0.1,0.5l-1.2-0.1C58.6,80.7,58,80.7,57.2,80.7"/>
		<path d="M61.8,85.1v-1.7V80h0.3h0.3c1.1,1.2,2.3,2.5,3.7,3.9l1.4,1.4c0.1,0.1,0.3,0.3,0.6,0.5v-2.7c0-0.9-0.1-1.9-0.2-3.1
			c0.2,0,0.4,0.1,0.5,0.1c0.1,0,0.3,0,0.5-0.1c-0.1,1.2-0.1,2.6-0.1,4.1v1.6v1.5v0.6v0.6h-0.2c-0.1,0-0.1,0-0.3,0
			c-2-2.2-3.9-4.1-5.9-5.9c0,1.2,0,2.5,0,3.9c0,0.4,0,1.1,0.1,2c0,0-0.1,0-0.2,0c-0.1,0-0.2,0-0.3,0c-0.1,0-0.3,0-0.5,0.1l0.1-1.7
			C61.8,86.2,61.8,85.7,61.8,85.1"/>
		<path d="M26.2,96.7h0.1c0.2,0.4,0.4,0.7,0.6,0.8c0.2,0.1,0.4,0.2,0.7,0.2c0.3,0,0.6-0.1,0.8-0.3c0.2-0.2,0.3-0.5,0.3-0.8
			c0-0.5-0.2-0.8-0.7-1c-0.2-0.1-0.5-0.2-0.9-0.4c-0.4-0.2-0.7-0.4-0.9-0.6c-0.2-0.2-0.2-0.5-0.2-0.9c0-0.5,0.1-0.9,0.4-1.2
			c0.4-0.4,0.9-0.6,1.6-0.6c0.4,0,0.9,0.1,1.5,0.4c-0.1,0.3-0.2,0.6-0.3,0.8h-0.1c-0.1-0.2-0.2-0.4-0.4-0.6s-0.5-0.2-0.7-0.2
			c-0.3,0-0.6,0.1-0.8,0.3C27.1,92.8,27,93,27,93.3c0,0.3,0.1,0.5,0.3,0.7c0.1,0.1,0.4,0.2,0.9,0.4c0.4,0.1,0.6,0.3,0.8,0.3
			c0.2,0.1,0.3,0.2,0.4,0.3c0.3,0.3,0.4,0.7,0.4,1.2c0,0.5-0.2,0.9-0.5,1.3c-0.4,0.4-1,0.6-1.7,0.6c-0.5,0-1-0.1-1.6-0.4
			C26.1,97.4,26.1,97,26.2,96.7"/>
		<path d="M31.4,93c-0.2,0-0.3-0.1-0.4-0.2c-0.1-0.1-0.2-0.3-0.2-0.4s0.1-0.3,0.2-0.4c0.1-0.1,0.3-0.2,0.4-0.2
			c0.2,0,0.3,0.1,0.4,0.2c0.1,0.1,0.2,0.3,0.2,0.4s-0.1,0.3-0.2,0.4C31.7,92.9,31.6,93,31.4,93 M30.9,98l0-0.9c0-0.4,0-0.7,0-1.1
			c0-0.9,0-1.6-0.1-2.2c0.2,0,0.4,0.1,0.6,0.1c0.2,0,0.3,0,0.5-0.1l0,0.4c0,0.8,0,1.3,0,1.5c0,0.2,0,0.8,0,1.6c0,0,0,0.2,0,0.4
			c0,0.2,0,0.3,0,0.4c-0.2,0-0.4-0.1-0.5-0.1C31.3,97.9,31.1,98,30.9,98"/>
		<path d="M37,95.2c0,0.1,0,0.3,0,0.8c0,0.5,0,0.8,0,0.9c0,0.5,0,0.8,0.1,1.1c-0.4,0-0.6-0.1-0.6-0.1c0,0-0.2,0-0.6,0.1
			c0.1-0.4,0.1-1,0.1-1.7c0-0.8,0-1.3-0.1-1.4c-0.1-0.4-0.4-0.6-0.8-0.6c-0.4,0-0.6,0.2-0.8,0.5c-0.1,0.2-0.1,0.6-0.1,1.2
			c0,0.8,0,1.4,0.1,2c-0.3,0-0.5-0.1-0.6-0.1c-0.1,0-0.3,0-0.6,0.1c0.1-0.9,0.1-1.6,0.1-2.3c0-0.7,0-1.4-0.1-1.9
			c0.2,0,0.4,0.1,0.6,0.1c0.1,0,0.3,0,0.5-0.1c0,0.2,0,0.4,0,0.7c0.2-0.3,0.4-0.5,0.6-0.6c0.2-0.1,0.5-0.2,0.8-0.2
			c0.5,0,0.8,0.1,1.1,0.4C36.8,94.4,37,94.8,37,95.2"/>
		<path d="M41.5,97.1l0.1,0.1c-0.1,0.1-0.1,0.3-0.2,0.6c-0.4,0.2-0.8,0.3-1.3,0.3c-0.7,0-1.2-0.2-1.6-0.7C38.1,97,38,96.5,38,96
			c0-0.6,0.2-1.1,0.6-1.5c0.4-0.5,1-0.7,1.7-0.7c0.4,0,0.9,0.1,1.3,0.3c-0.1,0.2-0.2,0.5-0.2,0.8h-0.2c0-0.1-0.1-0.2-0.2-0.4
			c-0.2-0.2-0.4-0.3-0.7-0.3c-0.4,0-0.7,0.2-0.9,0.5c-0.2,0.3-0.3,0.7-0.3,1.2c0,0.5,0.1,0.9,0.3,1.2c0.2,0.4,0.6,0.6,1,0.6
			c0.2,0,0.4,0,0.6-0.1C41.1,97.4,41.3,97.3,41.5,97.1"/>
		<path d="M46.1,95.9h-2.9c0,1.1,0.5,1.6,1.4,1.6c0.2,0,0.4-0.1,0.7-0.1c0.2-0.1,0.4-0.2,0.6-0.4l0.1,0.1c0,0,0,0.1-0.1,0.2
			l-0.1,0.4c-0.1,0.1-0.2,0.2-0.4,0.2c-0.3,0.1-0.7,0.2-1,0.2c-0.7,0-1.2-0.2-1.6-0.6c-0.4-0.4-0.6-0.9-0.6-1.7
			c0-0.7,0.2-1.2,0.6-1.6c0.4-0.3,0.8-0.5,1.4-0.5c0.8,0,1.4,0.3,1.6,0.8C46,94.9,46.1,95.3,46.1,95.9 M43.2,95.5h1.9
			c0-0.9-0.3-1.4-0.9-1.4C43.6,94.1,43.3,94.6,43.2,95.5"/>
		<path d="M47,93.4L47,93.4c0.4-0.2,1-0.5,1.8-0.8c0.3-0.1,0.6-0.3,0.9-0.5l0.1,0.1c-0.1,0.5-0.1,1.8-0.1,3.7c0,0.9,0,1.7,0.1,2.3
			l-0.2,0c-0.1,0-0.2,0-0.3,0c-0.1,0-0.2,0-0.3,0c-0.2,0-0.3,0-0.3,0c0.1-0.7,0.1-1.8,0.1-3.3V93c-0.4,0.3-0.8,0.5-1.3,0.7
			C47.3,93.7,47.2,93.6,47,93.4"/>
		<path d="M52.7,94.7L52.7,94.7c-0.3-0.1-0.5-0.2-0.7-0.4c-0.2-0.2-0.3-0.5-0.3-0.8c0-0.5,0.2-0.8,0.5-1.1c0.3-0.2,0.7-0.3,1.2-0.3
			c0.5,0,0.8,0.1,1.1,0.3c0.4,0.2,0.5,0.6,0.5,1.1c0,0.6-0.4,1-1.1,1.2v0c0.5,0.1,0.8,0.3,1,0.6c0.2,0.2,0.3,0.6,0.3,1
			c0,0.6-0.2,1.1-0.6,1.4c-0.3,0.3-0.8,0.4-1.2,0.4c-0.6,0-1.1-0.1-1.4-0.4c-0.4-0.3-0.5-0.8-0.5-1.3C51.4,95.5,51.8,95,52.7,94.7
			 M53.3,94.9c-0.3,0-0.5,0.2-0.7,0.5c-0.1,0.2-0.1,0.5-0.1,0.9c0,0.9,0.3,1.4,0.8,1.4c0.5,0,0.8-0.5,0.8-1.4
			C54.1,95.4,53.8,94.9,53.3,94.9 M53.3,92.5c-0.4,0-0.7,0.3-0.7,1c0,0.7,0.2,1,0.7,1c0.4,0,0.7-0.3,0.7-1
			C53.9,92.8,53.7,92.5,53.3,92.5"/>
		<path d="M57.8,92.1c0.7,0,1.2,0.3,1.5,0.8c0.3,0.4,0.4,1,0.4,1.8c0,0.8-0.1,1.4-0.4,2c-0.4,0.9-1.1,1.3-2.1,1.3
			c-0.3,0-0.5-0.1-0.8-0.2c0-0.2-0.1-0.4-0.2-0.6l0.1,0c0.3,0.3,0.6,0.4,1,0.4c0.5,0,0.9-0.3,1.1-1c0.1-0.4,0.2-0.9,0.2-1.4
			c-0.2,0.3-0.6,0.5-1.2,0.5c-0.3,0-0.6-0.1-0.9-0.2c-0.5-0.3-0.7-0.8-0.7-1.5c0-0.6,0.2-1.1,0.5-1.4C56.7,92.3,57.2,92.1,57.8,92.1
			 M57.8,95.3c0.6,0,0.8-0.5,0.8-1.5c0-0.9-0.3-1.4-0.8-1.4c-0.3,0-0.5,0.2-0.7,0.6c-0.1,0.2-0.1,0.5-0.1,0.9
			C56.9,94.9,57.2,95.3,57.8,95.3"/>
		<path d="M62.4,92.1c0.7,0,1.2,0.3,1.5,1c0.2,0.5,0.3,1.1,0.3,2c0,1-0.2,1.7-0.5,2.2c-0.3,0.5-0.8,0.8-1.4,0.8c-1.3,0-1.9-1-1.9-3
			c0-0.9,0.1-1.6,0.4-2.1C61.2,92.4,61.7,92.1,62.4,92.1 M62.4,97.7c0.4,0,0.7-0.4,0.7-1.1c0-0.4,0.1-0.9,0.1-1.5
			c0-0.7,0-1.2-0.1-1.5c-0.1-0.7-0.3-1.1-0.7-1.1c-0.4,0-0.6,0.3-0.7,0.9c-0.1,0.4-0.1,0.9-0.1,1.6c0,0.9,0,1.5,0.1,1.9
			c0,0.3,0.1,0.5,0.2,0.6C61.9,97.6,62.1,97.7,62.4,97.7"/>
	</g>
</g>
</svg>
